<mxfile host="app.diagrams.net" agent="Mozilla/5.0 (X11; Linux x86_64; Chromium GOST) AppleWebKit/537.36 (KHTML, like Gecko) Chrome/131.0.0.0 Safari/537.36" version="26.0.8">
  <diagram name="Страница — 1" id="HHIPzrckXp_07Ae0No42">
    <mxGraphModel dx="989" dy="525" grid="1" gridSize="10" guides="1" tooltips="1" connect="1" arrows="1" fold="1" page="1" pageScale="1" pageWidth="827" pageHeight="1169" math="0" shadow="0">
      <root>
        <mxCell id="0" />
        <mxCell id="1" parent="0" />
        <mxCell id="TWxmgLf3jqSou3KsrEpo-5" style="edgeStyle=orthogonalEdgeStyle;rounded=0;orthogonalLoop=1;jettySize=auto;html=1;entryX=0;entryY=0.5;entryDx=0;entryDy=0;" edge="1" parent="1" source="TWxmgLf3jqSou3KsrEpo-1" target="TWxmgLf3jqSou3KsrEpo-4">
          <mxGeometry relative="1" as="geometry" />
        </mxCell>
        <mxCell id="TWxmgLf3jqSou3KsrEpo-1" value="user" style="shape=umlActor;verticalLabelPosition=bottom;verticalAlign=top;html=1;outlineConnect=0;" vertex="1" parent="1">
          <mxGeometry x="60" y="260" width="40" height="80" as="geometry" />
        </mxCell>
        <mxCell id="TWxmgLf3jqSou3KsrEpo-9" style="edgeStyle=orthogonalEdgeStyle;rounded=0;orthogonalLoop=1;jettySize=auto;html=1;entryX=0;entryY=0.5;entryDx=0;entryDy=0;" edge="1" parent="1" source="TWxmgLf3jqSou3KsrEpo-4" target="TWxmgLf3jqSou3KsrEpo-6">
          <mxGeometry relative="1" as="geometry" />
        </mxCell>
        <mxCell id="TWxmgLf3jqSou3KsrEpo-18" style="edgeStyle=orthogonalEdgeStyle;rounded=0;orthogonalLoop=1;jettySize=auto;html=1;entryX=0;entryY=0.5;entryDx=0;entryDy=0;" edge="1" parent="1" source="TWxmgLf3jqSou3KsrEpo-4" target="TWxmgLf3jqSou3KsrEpo-17">
          <mxGeometry relative="1" as="geometry" />
        </mxCell>
        <mxCell id="TWxmgLf3jqSou3KsrEpo-25" style="edgeStyle=orthogonalEdgeStyle;rounded=0;orthogonalLoop=1;jettySize=auto;html=1;entryX=0;entryY=0.5;entryDx=0;entryDy=0;" edge="1" parent="1" source="TWxmgLf3jqSou3KsrEpo-4" target="TWxmgLf3jqSou3KsrEpo-24">
          <mxGeometry relative="1" as="geometry" />
        </mxCell>
        <mxCell id="TWxmgLf3jqSou3KsrEpo-4" value="главная страница" style="rounded=0;whiteSpace=wrap;html=1;" vertex="1" parent="1">
          <mxGeometry x="150" y="280" width="90" height="40" as="geometry" />
        </mxCell>
        <mxCell id="TWxmgLf3jqSou3KsrEpo-20" style="edgeStyle=orthogonalEdgeStyle;rounded=0;orthogonalLoop=1;jettySize=auto;html=1;" edge="1" parent="1" source="TWxmgLf3jqSou3KsrEpo-6" target="TWxmgLf3jqSou3KsrEpo-7">
          <mxGeometry relative="1" as="geometry" />
        </mxCell>
        <mxCell id="TWxmgLf3jqSou3KsrEpo-6" value="фильтр" style="rounded=0;whiteSpace=wrap;html=1;" vertex="1" parent="1">
          <mxGeometry x="280" y="220" width="90" height="40" as="geometry" />
        </mxCell>
        <mxCell id="TWxmgLf3jqSou3KsrEpo-13" style="edgeStyle=orthogonalEdgeStyle;rounded=0;orthogonalLoop=1;jettySize=auto;html=1;entryX=0;entryY=0.5;entryDx=0;entryDy=0;" edge="1" parent="1" source="TWxmgLf3jqSou3KsrEpo-7" target="TWxmgLf3jqSou3KsrEpo-10">
          <mxGeometry relative="1" as="geometry" />
        </mxCell>
        <mxCell id="TWxmgLf3jqSou3KsrEpo-15" style="edgeStyle=orthogonalEdgeStyle;rounded=0;orthogonalLoop=1;jettySize=auto;html=1;entryX=0;entryY=0.5;entryDx=0;entryDy=0;" edge="1" parent="1" source="TWxmgLf3jqSou3KsrEpo-7" target="TWxmgLf3jqSou3KsrEpo-12">
          <mxGeometry relative="1" as="geometry" />
        </mxCell>
        <mxCell id="TWxmgLf3jqSou3KsrEpo-16" style="edgeStyle=orthogonalEdgeStyle;rounded=0;orthogonalLoop=1;jettySize=auto;html=1;entryX=0;entryY=0.5;entryDx=0;entryDy=0;" edge="1" parent="1" source="TWxmgLf3jqSou3KsrEpo-7" target="TWxmgLf3jqSou3KsrEpo-11">
          <mxGeometry relative="1" as="geometry" />
        </mxCell>
        <mxCell id="TWxmgLf3jqSou3KsrEpo-7" value="книга" style="rounded=0;whiteSpace=wrap;html=1;" vertex="1" parent="1">
          <mxGeometry x="400" y="280" width="90" height="40" as="geometry" />
        </mxCell>
        <mxCell id="TWxmgLf3jqSou3KsrEpo-10" value="информация о книге" style="rounded=0;whiteSpace=wrap;html=1;" vertex="1" parent="1">
          <mxGeometry x="530" y="280" width="90" height="40" as="geometry" />
        </mxCell>
        <mxCell id="TWxmgLf3jqSou3KsrEpo-11" value="где прочитать/купить" style="rounded=0;whiteSpace=wrap;html=1;" vertex="1" parent="1">
          <mxGeometry x="530" y="340" width="90" height="40" as="geometry" />
        </mxCell>
        <mxCell id="TWxmgLf3jqSou3KsrEpo-12" value="оставить рецензию о книге" style="rounded=0;whiteSpace=wrap;html=1;" vertex="1" parent="1">
          <mxGeometry x="530" y="220" width="90" height="40" as="geometry" />
        </mxCell>
        <mxCell id="TWxmgLf3jqSou3KsrEpo-19" style="edgeStyle=orthogonalEdgeStyle;rounded=0;orthogonalLoop=1;jettySize=auto;html=1;entryX=0.5;entryY=1;entryDx=0;entryDy=0;" edge="1" parent="1" source="TWxmgLf3jqSou3KsrEpo-17" target="TWxmgLf3jqSou3KsrEpo-7">
          <mxGeometry relative="1" as="geometry" />
        </mxCell>
        <mxCell id="TWxmgLf3jqSou3KsrEpo-17" value="рекомендации" style="rounded=0;whiteSpace=wrap;html=1;" vertex="1" parent="1">
          <mxGeometry x="280" y="340" width="90" height="40" as="geometry" />
        </mxCell>
        <mxCell id="TWxmgLf3jqSou3KsrEpo-21" value="admin" style="shape=umlActor;verticalLabelPosition=bottom;verticalAlign=top;html=1;outlineConnect=0;" vertex="1" parent="1">
          <mxGeometry x="60" y="480" width="40" height="80" as="geometry" />
        </mxCell>
        <mxCell id="TWxmgLf3jqSou3KsrEpo-26" style="edgeStyle=orthogonalEdgeStyle;rounded=0;orthogonalLoop=1;jettySize=auto;html=1;" edge="1" parent="1" source="TWxmgLf3jqSou3KsrEpo-24" target="TWxmgLf3jqSou3KsrEpo-7">
          <mxGeometry relative="1" as="geometry" />
        </mxCell>
        <mxCell id="TWxmgLf3jqSou3KsrEpo-24" value="все книги" style="rounded=0;whiteSpace=wrap;html=1;" vertex="1" parent="1">
          <mxGeometry x="280" y="280" width="90" height="40" as="geometry" />
        </mxCell>
      </root>
    </mxGraphModel>
  </diagram>
</mxfile>
